<?xml version="1.0" encoding="UTF-8" standalone="no"?>
<svg width="235px" height="176px" viewBox="0 0 235 176" version="1.1" xmlns="http://www.w3.org/2000/svg" xmlns:xlink="http://www.w3.org/1999/xlink">
    <!-- Generator: Sketch 39.1 (31720) - http://www.bohemiancoding.com/sketch -->
    <title>stripeShadow</title>
    <desc>Created with Sketch.</desc>
    <defs></defs>
    <g id="Page-1" stroke="none" stroke-width="1" fill="none" fill-rule="evenodd">
        <g id="Style-0-home" transform="translate(-985.000000, -1051.000000)" fill="#00EDFF">
            <g id="Group-2" transform="translate(985.000000, 1051.000000)">
                <g id="stripeShadow">
                    <polygon id="Fill-1" points="193.874912 3.36527887 234.941456 44.2757204 234.999912 44.2171933 234.999912 41.0274664 193.874912 0.0587904699"></polygon>
                    <polygon id="Fill-2" points="193.874912 16.5046416 234.941456 57.3858196 234.999912 57.3272925 234.999912 54.1375656 193.874912 13.168597"></polygon>
                    <polygon id="Fill-3" points="193.874912 29.8196735 234.941456 70.7008514 234.999912 70.6423243 234.999912 67.4523049 193.874912 26.4836289"></polygon>
                    <polygon id="Fill-4" points="193.874912 56.4494738 234.941456 97.3306518 234.999912 97.2721247 234.999912 94.0823978 193.874912 53.1134292"></polygon>
                    <polygon id="Fill-5" points="193.874912 43.134442 234.941456 84.0156199 234.999912 83.9570928 234.999912 80.767366 193.874912 39.7983974"></polygon>
                    <polygon id="Fill-6" points="193.874912 69.7642423 234.941456 110.64542 234.999912 110.586893 234.999912 107.397166 193.874912 66.4284903"></polygon>
                    <polygon id="Fill-7" points="193.874912 83.0792741 234.941456 123.960452 234.999912 123.901925 234.999912 120.712198 193.874912 79.7432295"></polygon>
                    <polygon id="Fill-8" points="193.874912 96.3940426 234.941456 137.275513 234.999912 137.216693 234.999912 134.026967 193.874912 93.0582907"></polygon>
                    <polygon id="Fill-9" points="193.874912 123.023843 234.941456 163.905314 234.999912 163.846494 234.999912 160.656767 193.874912 119.688091"></polygon>
                    <polygon id="Fill-10" points="192.141934 134.612208 233.266934 175.581177 235.000059 175.581177 235.000059 173.971974 193.875059 133.002713"></polygon>
                    <polygon id="Fill-11" points="177.366279 134.612208 218.490986 175.581177 221.810654 175.581177 180.685361 134.612208"></polygon>
                    <polygon id="Fill-12" points="162.590625 134.612208 203.715625 175.581177 207.035 175.581177 165.91 134.612208"></polygon>
                    <polygon id="Fill-13" points="147.814971 134.612208 188.939971 175.581177 192.259346 175.581177 151.134346 134.612208"></polygon>
                    <polygon id="Fill-14" points="133.009971 134.612208 174.134971 175.581177 177.483721 175.581177 136.358721 134.612208"></polygon>
                    <polygon id="Fill-15" points="118.234316 134.612208 159.359316 175.581177 162.678691 175.581177 121.553691 134.612208"></polygon>
                    <polygon id="Fill-16" points="103.458662 134.612208 144.583662 175.581177 147.903037 175.581177 106.778037 134.612208"></polygon>
                    <polygon id="Fill-17" points="88.6830075 134.612208 129.808007 175.581177 133.127676 175.581177 92.0023825 134.612208"></polygon>
                    <polygon id="Fill-18" points="73.9076175 134.612208 115.032324 175.581177 118.351993 175.581177 77.2266988 134.612208"></polygon>
                    <polygon id="Fill-19" points="59.1319631 134.612208 100.256963 175.581177 103.576338 175.581177 62.4510444 134.612208"></polygon>
                    <polygon id="Fill-20" points="44.3269631 134.612208 85.4516694 175.581177 88.8007131 175.581177 47.6754194 134.612208"></polygon>
                    <polygon id="Fill-21" points="29.5513087 134.612208 70.676015 175.581177 73.9956837 175.581177 32.87039 134.612208"></polygon>
                    <polygon id="Fill-22" points="14.7756544 134.612208 55.9003606 175.581177 59.2200294 175.581177 18.0947356 134.612208"></polygon>
                    <polygon id="Fill-23" points="0 134.612208 41.125 175.581177 44.444375 175.581177 3.319375 134.612208"></polygon>
                    <polygon id="Fill-24" points="193.874912 109.709074 234.941456 150.590252 234.999912 150.531725 234.999912 147.341998 193.874912 106.37303"></polygon>
                </g>
            </g>
        </g>
    </g>
</svg>